# xmcd
#
# Track frame offsets: 
#        150
#        23120
#        39810
#        72442
#        166835
#        234747
#
# Disc length: 3788 seconds
#
# Revision: 2
# Processed by: cddbd v1.5.2PL0 Copyright (c) Steve Scherf et al.
# Submitted via: ExactAudioCopyFreeDBPlugin 1.0
#
DISCID=420eca06
DTITLE=Bracha Eden, Alexander Tamir, Schubert - Schubert Edition CD40 
DTITLE=Piano Four Hands IV
DYEAR=1997
DGENRE=Classical
TTITLE0=No.1 in D: Allegro vivace - 3 Marches militaires, D.733
TTITLE1=No.2 in G: Allegro molto moderato - 3 Marches militaires, D.73
TTITLE1=3
TTITLE2=No.3 in E flat: Allegro moderato - 3 Marches militaires, D.733
TTITLE3=8 Variations on a original theme D.813
TTITLE4=Allegro in A minor D.947 "Lebensstürme"
TTITLE5=4 Varaiations on a original theme, D.968a
EXTD=
EXTT0=
EXTT1=
EXTT2=
EXTT3=
EXTT4=
EXTT5=
PLAYORDER=
